PathFileType	4	(X/Y/Z)	C:/Users/opensim2020/Desktop/walking_exp_matlab/subject06_walking18_straight_01.trc																																																																																																																																											
DataRate	CameraRate	NumFrames	NumMarkers	Units	OrigDataRate	OrigDataStartFrame	OrigNumFrames																																																																																																																																							
100	100	5	47	mm	100	1315	396																																																																																																																																							
Frame#	Time	LFHD			RFHD			LBHD			RBHD			C7			T10			CLAV			STRN			RBAK			LSHO			LUPA			LELB			LFRM			LWRA			LWRB			LFIN			RSHO			RUPA			RELB			RFRM			RWRA			RWRB			RFIN			LASI			RASI			LPSI			RPSI			LTHI			LKNE			LTIB			LANK			LHEE			LTOE			RTHI			RKNE			RTIB			RANK			RHEE			RTOE			*39			*40			*41			*42			*43			*44			*45			*46		
		X1	Y1	Z1	X2	Y2	Z2	X3	Y3	Z3	X4	Y4	Z4	X5	Y5	Z5	X6	Y6	Z6	X7	Y7	Z7	X8	Y8	Z8	X9	Y9	Z9	X10	Y10	Z10	X11	Y11	Z11	X12	Y12	Z12	X13	Y13	Z13	X14	Y14	Z14	X15	Y15	Z15	X16	Y16	Z16	X17	Y17	Z17	X18	Y18	Z18	X19	Y19	Z19	X20	Y20	Z20	X21	Y21	Z21	X22	Y22	Z22	X23	Y23	Z23	X24	Y24	Z24	X25	Y25	Z25	X26	Y26	Z26	X27	Y27	Z27	X28	Y28	Z28	X29	Y29	Z29	X30	Y30	Z30	X31	Y31	Z31	X32	Y32	Z32	X33	Y33	Z33	X34	Y34	Z34	X35	Y35	Z35	X36	Y36	Z36	X37	Y37	Z37	X38	Y38	Z38	X39	Y39	Z39	X40	Y40	Z40	X41	Y41	Z41	X42	Y42	Z42	X43	Y43	Z43	X44	Y44	Z44	X45	Y45	Z45	X46	Y46	Z46	X47	Y47	Z47
																																																																																																																																														
298	2.97	891.59283	1675.33362	1383.9668	895.54395	1659.16907	1514.6571	760.0686	1616.48328	1384.19751	765.18591	1605.33948	1513.60107	765.38617	1458.4115	1433.41284	730.75403	1131.02795	1439.53638	876.02869	1382.32043	1431.73206	914.88434	1205.67761	1420.04529	693.70422	1286.37268	1511.60095	822.08521	1416.22888	1271.80945	833.03125	1212.9375	1201.13635	840.17682	1100.06763	1191.59778	896.44946	959.26544	1179.66162	977.56311	864.94757	1233.7981	925.34497	844.30035	1190.93188	983.99939	775.34149	1200.69824	832.66125	1412.23999	1593.28369	797.88202	1211.06921	1676.12463	808.91919	1089.41406	1684.76929	823.8714	969.72937	1699.9469	881.65668	829.8399	1666.9834	827.65747	831.58081	1706.4187	863.0177	754.26221	1707.48547	891.52228	963.26514	1317.10681	914.41571	974.88293	1536.65894	739.88507	997.56616	1358.33801	759.91968	1005.63135	1525.12231	791.31055	648.82452	1268.00708	779.11829	484.76791	1284.03101	599.73315	305.27261	1300.68274	491.69379	171.61391	1343.11633	458.14392	186.06779	1393.3479	569.25153	47.48591	1342.92664	883.12653	646.3725	1600.02014	897.00574	522.71655	1571.6792	876.84692	257.04526	1571.38782	880.86676	72.16471	1521.53064	841.92719	48.88312	1477.14355	1034.8949	39.57666	1518.17456	791.58911	1707.61963	1446.77466	NaN	NaN	NaN	NaN	NaN	NaN	NaN	NaN	NaN	NaN	NaN	NaN	NaN	NaN	NaN	NaN	NaN	NaN	NaN	NaN	NaN
299	2.98	897.90839	1675.46326	1385.24658	901.83264	1659.35437	1515.94299	766.31683	1616.64343	1385.51392	771.40985	1605.53662	1514.8335	771.59277	1458.73975	1434.74524	736.57043	1131.28442	1440.91309	882.13025	1382.42639	1433.06067	920.63037	1205.69507	1421.33911	699.72229	1286.72644	1513.18384	828.15729	1416.12195	1273.36584	837.78137	1212.89697	1202.51331	844.19159	1099.94409	1193.08704	899.46991	958.85358	1179.98694	979.77368	863.32019	1233.32739	927.47363	843.53717	1190.26563	984.92908	773.66229	1199.93823	839.09344	1412.39783	1594.63062	804.76337	1211.20618	1677.59436	816.03705	1089.61694	1686.2478	831.45349	969.9483	1701.26123	889.67688	830.37665	1667.66882	835.84717	831.74042	1707.3772	871.59113	754.56354	1708.02856	896.99365	963.25146	1318.37488	919.90363	974.91266	1538.11157	745.30682	997.64722	1359.35449	765.28168	1005.8443	1526.14905	800.16425	648.28455	1268.48523	790.82074	484.20898	1284.01392	610.09955	307.1113	1301.45679	499.76831	175.9174	1344.27954	466.7941	190.89355	1394.7644	575.04407	50.50449	1342.86206	887.19446	646.43481	1600.85437	899.9259	522.56042	1572.92847	877.42627	257.04227	1571.61011	880.93597	72.1585	1521.50671	842.07922	48.96535	1477.02942	1034.94958	39.42818	1518.22339	797.87085	1707.79077	1448.00842	NaN	NaN	NaN	NaN	NaN	NaN	NaN	NaN	NaN	NaN	NaN	NaN	NaN	NaN	NaN	NaN	NaN	NaN	NaN	NaN	NaN
300	2.99	904.15918	1675.55237	1386.44263	908.06842	1659.48267	1517.14001	772.60748	1616.77051	1386.72339	777.65063	1605.73193	1516.05664	778.02594	1459.21924	1436.60449	741.92218	1131.63892	1442.22205	888.07867	1382.47009	1434.30444	926.23444	1205.64258	1422.51135	705.68787	1287.08618	1514.69861	833.65906	1416.29846	1274.3252	842.19891	1212.87524	1203.57446	848.03375	1099.91943	1194.39221	902.12256	958.45251	1180.2887	981.93701	861.8476	1232.55774	929.08026	842.85443	1189.6488	985.78351	772.20624	1198.93945	845.51758	1412.51733	1595.89758	811.59167	1211.27454	1678.99744	823.09308	1089.67566	1687.48328	838.99445	970.12219	1702.40161	897.66785	830.88586	1668.29626	844.09509	831.92926	1708.35889	880.15295	754.90167	1708.57446	902.88239	963.41797	1319.26099	925.36877	974.95752	1539.37634	750.85455	997.58997	1360.32324	770.55829	1006.06927	1527.15625	809.09821	647.75397	1269.01416	802.37598	483.73492	1284.17639	620.6651	309.01349	1302.20825	508.33737	179.80118	1345.73596	475.98651	194.85115	1396.56897	582.37622	53.62735	1342.0874	890.24487	646.21106	1601.3147	902.57446	522.26703	1573.94092	878.28607	256.991	1572.01953	881.01666	72.12904	1521.50476	842.0741	48.96786	1476.98694	1035.04492	39.2996	1518.30579	804.164	1707.94702	1449.23352	NaN	NaN	NaN	NaN	NaN	NaN	NaN	NaN	NaN	NaN	NaN	NaN	NaN	NaN	NaN	NaN	NaN	NaN	NaN	NaN	NaN
301	3	910.45331	1675.67749	1387.54456	914.35986	1659.62878	1518.28479	778.80066	1616.92419	1387.88013	783.90552	1605.92346	1517.27649	784.01953	1459.5376	1437.93286	747.51563	1131.78918	1443.42188	893.97546	1382.59753	1435.41382	931.74335	1205.63391	1423.61011	711.513	1287.46204	1516.06372	839.14502	1416.29492	1275.34583	846.47113	1212.84509	1204.81702	851.3988	1099.90137	1195.75427	904.14203	958.00726	1180.65686	984.00433	860.62195	1231.54895	930.62891	842.44153	1189.08789	986.32404	770.85913	1197.6864	851.79126	1412.58801	1597.0509	818.31744	1211.32178	1680.33923	830.00757	1089.79333	1688.81189	846.51776	970.26617	1703.54248	905.56262	831.39166	1668.86157	852.30188	832.16132	1709.38672	888.62726	755.21619	1709.078	908.46997	963.5744	1320.35571	930.64227	975.06732	1540.62109	756.27563	997.56494	1361.1842	775.46539	1006.29303	1528.23279	818.10028	647.32825	1269.47009	813.95044	483.45798	1284.33606	631.7868	310.37579	1303.41321	517.66132	182.9762	1347.19409	485.73792	197.70361	1398.53296	591.06561	56.50472	1341.54297	894.39081	646.367	1602.53699	905.22278	522.09436	1575.03442	879.2356	256.91266	1572.42053	881.04767	72.0875	1521.51538	842.07404	48.94433	1476.94128	1035.12256	39.19884	1518.36865	810.43317	1708.10559	1450.34106	NaN	NaN	NaN	NaN	NaN	NaN	NaN	NaN	NaN	NaN	NaN	NaN	NaN	NaN	NaN	NaN	NaN	NaN	NaN	NaN	NaN
302	3.01	916.61755	1675.73816	1388.61121	920.62109	1659.7489	1519.33691	784.93878	1617.16858	1388.99768	790.05347	1606.16125	1518.36389	789.98083	1459.80164	1439.12305	752.75677	1132.16382	1444.5332	899.67145	1382.59705	1436.37476	937.09583	1205.61218	1424.64319	717.12689	1287.81812	1517.36804	844.68469	1416.56885	1276.4137	850.57123	1212.86841	1206.17297	854.40558	1099.97571	1197.05359	905.86578	957.66241	1180.91345	985.95532	859.56744	1230.26123	931.36908	841.87439	1188.86877	986.68359	769.71387	1196.37476	858.01648	1412.67566	1598.18005	824.91418	1211.36597	1681.58582	836.87988	1089.87109	1690.01709	853.89478	970.40973	1704.59509	913.61707	831.94482	1669.49524	860.414	832.38	1710.29004	897.17706	755.61444	1709.59314	913.93445	963.77203	1321.51978	935.87219	975.2373	1541.81396	761.62042	997.57147	1362.22595	780.91559	1006.4079	1529.17175	827.08258	647.17853	1269.96301	825.45569	483.41077	1284.58936	642.62573	311.78345	1304.24402	527.77783	185.29091	1348.69592	496.10599	199.4599	1400.47485	602.01563	59.72538	1340.41699	897.78961	646.3927	1603.33765	907.81012	521.96198	1575.97632	880.29279	256.85489	1572.85339	881.11395	72.04057	1521.56775	841.97687	49.11324	1477.39673	1035.15662	39.1257	1518.41174	816.72168	1708.31445	1451.41248	NaN	NaN	NaN	NaN	NaN	NaN	NaN	NaN	NaN	NaN	NaN	NaN	NaN	NaN	NaN	NaN	NaN	NaN	NaN	NaN	NaN
